<?xml version="1.0" encoding="UTF-8" standalone="no"?>
<!DOCTYPE svg PUBLIC "-//W3C//DTD SVG 1.1//EN" "http://www.w3.org/Graphics/SVG/1.1/DTD/svg11.dtd">
<svg width="100%" height="100%" viewBox="0 0 1386 1663" version="1.1" xmlns="http://www.w3.org/2000/svg" xmlns:xlink="http://www.w3.org/1999/xlink" xml:space="preserve" xmlns:serif="http://www.serif.com/" style="fill-rule:evenodd;clip-rule:evenodd;stroke-linejoin:round;stroke-miterlimit:2;">
    <g transform="matrix(1,0,0,1,-32358.5,-3527.49)">
        <g transform="matrix(1,0,0,1,-101,204)">
            <g transform="matrix(4.987,0,0,4.987,-135344,-41144.8)">
                <g transform="matrix(4.16667,0,0,4.16667,14703.7,-7791.5)">
                    <rect x="4578" y="4010" width="4" height="80" style="fill:rgb(110,90,87);fill-rule:nonzero;"/>
                </g>
                <g transform="matrix(4.16667,0,0,4.16667,14703.7,-7791.5)">
                    <path d="M4557.49,4036L4549.49,4028L4557.49,4020L4596,4020L4596,4036L4557.49,4036Z" style="fill:rgb(243,118,103);fill-rule:nonzero;stroke:rgb(140,194,92);stroke-width:0.05px;"/>
                </g>
                <g transform="matrix(4.16667,0,0,4.16667,14703.7,-7791.5)">
                    <path d="M4594,4034L4558.32,4034L4552.32,4028L4558.32,4022L4594,4022L4594,4034ZM4556.67,4018L4546.67,4028L4556.67,4038L4598,4038L4598,4018L4556.67,4018Z" style="fill:rgb(235,93,57);fill-rule:nonzero;"/>
                </g>
                <g transform="matrix(4.16667,0,0,4.16667,14703.7,-7791.5)">
                    <path d="M4564,4060L4564,4044L4602.51,4044L4610.51,4052L4602.51,4060L4564,4060Z" style="fill:rgb(140,194,92);fill-rule:nonzero;"/>
                </g>
                <g transform="matrix(4.16667,0,0,4.16667,14703.7,-7791.5)">
                    <path d="M4601.68,4058L4566,4058L4566,4046L4601.68,4046L4607.68,4052L4601.68,4058ZM4603.33,4042L4562,4042L4562,4062L4603.33,4062L4613.33,4052L4603.33,4042Z" style="fill:rgb(108,170,97);fill-rule:nonzero;"/>
                </g>
                <g transform="matrix(4.16667,0,0,4.16667,14703.7,-7791.5)">
                    <rect x="4570.67" y="4086" width="18.66" height="4" style="fill:rgb(78,52,47);fill-rule:nonzero;"/>
                </g>
            </g>
        </g>
    </g>
</svg>
